<svg width="261" height="66" viewBox="0 0 2610 660" fill="none" xmlns="http://www.w3.org/2000/svg" xmlns:xlink="http://www.w3.org/1999/xlink">
<symbol id="logo-symbol-wordmark"><path style="opacity:0.004" fill="#00017f" d="M 151.5,0.5 C 152.833,1.16667 152.833,1.16667 151.5,0.5 Z"/></g>
<g><path style="opacity:0.01" fill="#00007f" d="M 131.5,2.5 C 131.897,1.47498 132.563,1.30831 133.5,2C 132.906,2.46434 132.239,2.63101 131.5,2.5 Z"/></g>
<g><path style="opacity:0.008" fill="#00017e" d="M 139.5,2.5 C 138.761,2.63101 138.094,2.46434 137.5,2C 138.437,1.30831 139.103,1.47498 139.5,2.5 Z"/></g>
<g><path style="opacity:0.01" fill="#00007f" d="M 209.5,2.5 C 209.897,1.47498 210.563,1.30831 211.5,2C 210.906,2.46434 210.239,2.63101 209.5,2.5 Z"/></g>
<g><path style="opacity:0.008" fill="#00007f" d="M 216.5,2.5 C 216.897,1.47498 217.563,1.30831 218.5,2C 217.906,2.46434 217.239,2.63101 216.5,2.5 Z"/></g>
<g><path style="opacity:0.008" fill="#010081" d="M 220.5,4.5 C 219.833,3.16667 219.833,3.16667 220.5,4.5 Z"/></g>
<g><path style="opacity:0.013" fill="#00017f" d="M 128.5,4.5 C 129.598,5.60093 129.765,6.93426 129,8.5C 128.51,7.20677 128.343,5.87344 128.5,4.5 Z"/></g>
<g><path style="opacity:0.008" fill="#000080" d="M 220.5,4.5 C 221.833,5.16667 221.833,5.16667 220.5,4.5 Z"/></g>
<g><path style="opacity:0.01" fill="#35126c" d="M 28.5,6.5 C 29.9464,5.38705 31.6131,5.22039 33.5,6C 31.8659,6.49351 30.1992,6.66018 28.5,6.5 Z"/></g>
<g><path style="opacity:0.01" fill="#35126c" d="M 38.5,6.5 C 39.6009,5.40168 40.9343,5.23502 42.5,6C 41.2068,6.49001 39.8734,6.65668 38.5,6.5 Z"/></g>
<g><path style="opacity:0.008" fill="#35116c" d="M 43.5,7.5 C 43.8966,6.47498 44.5632,6.30831 45.5,7C 44.9056,7.46434 44.2389,7.63101 43.5,7.5 Z"/></g>
<g><path style="opacity:0.011" fill="#00007f" d="M 221.5,6.5 C 222.656,14.3225 222.823,22.3225 222,30.5C 221.5,22.5069 221.334,14.5069 221.5,6.5 Z"/></g>
<g><path style="opacity:0.004" fill="#3a156e" d="M 47.5,8.5 C 48.8333,9.16667 48.8333,9.16667 47.5,8.5 Z"/></g>
<g><path style="opacity:0.004" fill="#33116b" d="M 17.5,11.5 C 18.8333,12.1667 18.8333,12.1667 17.5,11.5 Z"/></g>
<g><path style="opacity:0.004" fill="#33106b" d="M 50.5,11.5 C 51.525,11.8966 51.6917,12.5632 51,13.5C 50.5357,12.9056 50.369,12.2389 50.5,11.5 Z"/></g>
<g><path style="opacity:0.881" fill="#090786" d="M 151.5,1.5 C 152.167,2.83333 153.167,3.83333 154.5,4.5C 154.613,7.04877 153.946,9.3821 152.5,11.5C 152.624,12.1067 152.957,12.44 153.5,12.5C 153.334,19.175 153.5,25.8417 154,32.5C 154.207,26.0865 154.707,19.7531 155.5,13.5C 159.441,11.0948 163.775,9.76145 168.5,9.5C 169.514,10.6737 170.847,11.3404 172.5,11.5C 173.203,15.3368 174.536,15.5034 176.5,12C 183.072,8.64226 189.072,9.47559 194.5,14.5C 195.548,16.9327 196.214,16.9327 196.5,14.5C 200.017,11.7435 204.017,10.0768 208.5,9.5C 207.603,4.72828 209.603,2.39495 214.5,2.5C 216.195,3.17444 217.862,3.8411 219.5,4.5C 220.444,13.4465 220.778,22.4465 220.5,31.5C 219.833,31.5 219.5,31.8333 219.5,32.5C 218.833,32.5 218.5,32.8333 218.5,33.5C 217.833,33.5 217.5,33.8333 217.5,34.5C 216.508,34.3284 215.842,34.6618 215.5,35.5C 214.209,35.2627 213.209,35.596 212.5,36.5C 209.833,36.5 207.167,36.5 204.5,36.5C 203.486,35.3263 202.153,34.6596 200.5,34.5C 199.71,33.5987 198.71,32.9321 197.5,32.5C 196.305,28.7139 195.638,28.7139 195.5,32.5C 194.833,32.5 194.5,32.8333 194.5,33.5C 193.833,33.5 193.5,33.8333 193.5,34.5C 192.833,34.5 192.5,34.8333 192.5,35.5C 191.209,35.2627 190.209,35.596 189.5,36.5C 185.785,36.577 182.119,36.2436 178.5,35.5C 172.46,31.7562 169.96,26.4229 171,19.5C 169.266,20.2489 167.433,20.7489 165.5,21C 166.632,25.4132 166.799,29.9132 166,34.5C 164.698,35.0848 163.531,35.7515 162.5,36.5C 161.167,36.5 159.833,36.5 158.5,36.5C 157.312,35.6364 156.145,34.6364 155,33.5C 153.69,34.8969 152.19,35.8969 150.5,36.5C 148.5,36.1667 146.5,35.8333 144.5,35.5C 144.167,34.5 143.5,33.8333 142.5,33.5C 142.5,26.1667 142.5,18.8333 142.5,11.5C 141.802,18.7336 141.136,26.067 140.5,33.5C 138.973,33.427 137.973,34.0937 137.5,35.5C 133.865,36.1143 130.198,36.4476 126.5,36.5C 124.071,35.4488 121.738,34.1155 119.5,32.5C 119.5,31.8333 119.167,31.5 118.5,31.5C 118.011,30.0048 117.345,28.6715 116.5,27.5C 116.5,29.5 116.5,31.5 116.5,33.5C 115.833,33.5 115.5,33.8333 115.5,34.5C 114.508,34.3284 113.842,34.6618 113.5,35.5C 112.508,35.3284 111.842,35.6618 111.5,36.5C 108.5,36.5 105.5,36.5 102.5,36.5C 101.486,35.3263 100.153,34.6596 98.5,34.5C 96.614,33.0699 94.9473,31.4032 93.5,29.5C 93.7373,28.209 93.404,27.209 92.5,26.5C 92.2144,24.0673 91.5477,24.0673 90.5,26.5C 88.1667,26.5 85.8333,26.5 83.5,26.5C 83.7771,29.4475 83.4438,32.2809 82.5,35C 79.5184,35.498 76.5184,35.6646 73.5,35.5C 73.2172,34.7109 72.7172,34.0442 72,33.5C 71.3333,25.1667 71.3333,16.8333 72,8.5C 72.8333,7.66667 73.6667,6.83333 74.5,6C 81.444,4.93717 88.1106,5.43717 94.5,7.5C 94.8928,10.5133 94.2261,13.1799 92.5,15.5C 79.1667,15.8333 79.1667,16.1667 92.5,16.5C 92.8333,20.5 93.1667,20.5 93.5,16.5C 94.4884,15.205 95.4884,13.8717 96.5,12.5C 97.1667,12.5 97.5,12.1667 97.5,11.5C 98.4916,11.6716 99.1583,11.3382 99.5,10.5C 100.791,10.7373 101.791,10.404 102.5,9.5C 105.518,9.70381 108.518,10.0371 111.5,10.5C 113.569,13.1627 116.069,14.4961 119,14.5C 122.013,10.9429 125.68,9.60957 130,10.5C 130.497,8.19018 130.663,5.85684 130.5,3.5C 133.542,2.45892 136.542,2.45892 139.5,3.5C 140.504,4.68275 141.338,6.01608 142,7.5C 142.897,1.80483 146.064,-0.195174 151.5,1.5 Z M 142.5,11.5 C 142.5,18.8333 142.5,26.1667 142.5,33.5C 141.833,33.5 141.167,33.5 140.5,33.5C 141.136,26.067 141.802,18.7336 142.5,11.5 Z M 94.5,7.5 C 94.8333,7.5 95.1667,7.5 95.5,7.5C 95.2155,9.41467 95.5489,11.0813 96.5,12.5C 95.4884,13.8717 94.4884,15.205 93.5,16.5C 93.5,15.8333 93.1667,15.5 92.5,15.5C 94.2261,13.1799 94.8928,10.5133 94.5,7.5 Z M 153.5,12.5 C 154.167,12.8333 154.833,13.1667 155.5,13.5C 154.707,19.7531 154.207,26.0865 154,32.5C 153.5,25.8417 153.334,19.175 153.5,12.5 Z M 194.5,14.5 C 195.167,14.5 195.833,14.5 196.5,14.5C 196.214,16.9327 195.548,16.9327 194.5,14.5 Z M 128.5,21.5 C 128.783,20.7109 129.283,20.0442 130,19.5C 130.667,21.8333 130.667,24.1667 130,26.5C 129.5,26 129,25.5 128.5,25C 129.791,23.7083 129.791,22.5417 128.5,21.5 Z M 206.5,20.5 C 207.693,20.9704 208.36,21.9704 208.5,23.5C 208.333,24.5 208.167,25.5 208,26.5C 206.681,24.7505 206.181,22.7505 206.5,20.5 Z M 92.5,26.5 C 91.8333,26.5 91.1667,26.5 90.5,26.5C 91.5477,24.0673 92.2144,24.0673 92.5,26.5 Z M 116.5,27.5 C 115.711,27.2172 115.044,26.7172 114.5,26C 115.816,25.4719 116.483,25.9719 116.5,27.5 Z M 116.5,27.5 C 117.345,28.6715 118.011,30.0048 118.5,31.5C 117.662,31.8417 117.328,32.5084 117.5,33.5C 117.167,33.5 116.833,33.5 116.5,33.5C 116.5,31.5 116.5,29.5 116.5,27.5 Z M 197.5,32.5 C 196.833,32.5 196.167,32.5 195.5,32.5C 195.638,28.7139 196.305,28.7139 197.5,32.5 Z"/></g>
<g><path style="opacity:0.008" fill="#000080" d="M 173.5,11.5 C 174.833,12.1667 174.833,12.1667 173.5,11.5 Z"/></g>
<g><path style="opacity:0.004" fill="#000080" d="M 172.5,10.5 C 173.167,10.5 173.5,10.8333 173.5,11.5C 173.167,11.1667 172.833,10.8333 172.5,10.5 Z"/></g>
<g><path style="opacity:0.008" fill="#000080" d="M 113.5,10.5 C 114.833,11.1667 114.833,11.1667 113.5,10.5 Z"/></g>
<g><path style="opacity:0.012" fill="#000080" d="M 200.5,9.5 C 201.833,10.1667 201.833,10.1667 200.5,9.5 Z"/></g>
<g><path style="opacity:0.004" fill="#000080" d="M 172.5,10.5 C 171.833,9.16667 171.833,9.16667 172.5,10.5 Z"/></g>
<g><path style="opacity:0.012" fill="#00007f" d="M 158.5,9.5 C 159.833,10.1667 159.833,10.1667 158.5,9.5 Z"/></g>
<g><path style="opacity:0.012" fill="#00007f" d="M 154.5,9.5 C 155.833,10.1667 155.833,10.1667 154.5,9.5 Z"/></g>
<g><path style="opacity:0.012" fill="#00007f" d="M 111.5,9.5 C 112.833,10.1667 112.833,10.1667 111.5,9.5 Z"/></g>
<g><path style="opacity:0.012" fill="#000080" d="M 99.5,10.5 C 98.8333,9.16667 98.8333,9.16667 99.5,10.5 Z"/></g>
<g><path style="opacity:0.999" fill="#6162fb" d="M 75.5,7.5 C 81.0934,7.19343 86.5934,7.52676 92,8.5C 92.7203,10.1124 92.5536,11.6124 91.5,13C 87.8484,13.4986 84.1817,13.6653 80.5,13.5C 80.5,15.1667 80.5,16.8333 80.5,18.5C 83.8333,18.5 87.1667,18.5 90.5,18.5C 90.7394,20.4672 90.4061,22.3005 89.5,24C 86.5184,24.498 83.5184,24.6646 80.5,24.5C 80.5,27.5 80.5,30.5 80.5,33.5C 78.2075,33.7564 76.0408,33.4231 74,32.5C 73.3333,24.8333 73.3333,17.1667 74,9.5C 74.7172,8.9558 75.2172,8.28913 75.5,7.5 Z"/></g>
<g><path style="opacity:0.012" fill="#00007f" d="M 202.5,9.5 C 202.897,8.47498 203.563,8.30831 204.5,9C 203.906,9.46434 203.239,9.63101 202.5,9.5 Z"/></g>
<g><path style="opacity:0.009" fill="#00007f" d="M 186.5,9.5 C 187.251,8.42654 188.251,8.25988 189.5,9C 188.552,9.48278 187.552,9.64945 186.5,9.5 Z"/></g>
<g><path style="opacity:0.008" fill="#00007f" d="M 168.5,9.5 C 168.897,8.47498 169.563,8.30831 170.5,9C 169.906,9.46434 169.239,9.63101 168.5,9.5 Z"/></g>
<g><path style="opacity:0.012" fill="#00007f" d="M 160.5,9.5 C 161.251,8.42654 162.251,8.25988 163.5,9C 162.552,9.48278 161.552,9.64945 160.5,9.5 Z"/></g>
<g><path style="opacity:0.014" fill="#00007f" d="M 108.5,9.5 C 108.897,8.47498 109.563,8.30831 110.5,9C 109.906,9.46434 109.239,9.63101 108.5,9.5 Z"/></g>
<g><path style="opacity:0.012" fill="#00007f" d="M 102.5,9.5 C 101.761,9.63101 101.094,9.46434 100.5,9C 101.437,8.30831 102.103,8.47498 102.5,9.5 Z"/></g>
<g><path style="opacity:0.014" fill="#00007f" d="M 95.5,7.5 C 96.3446,8.67145 97.0113,10.0048 97.5,11.5C 96.8333,11.5 96.5,11.8333 96.5,12.5C 95.5489,11.0813 95.2155,9.41467 95.5,7.5 Z"/></g>
<g><path style="opacity:0.999" fill="#5c5df5" d="M 210.5,5.5 C 213.119,5.23166 215.619,5.565 218,6.5C 218.667,14.5 218.667,22.5 218,30.5C 211.635,35.746 205.302,35.746 199,30.5C 195.366,24.6105 195.866,19.1105 200.5,14C 203.688,12.6842 207.022,12.1842 210.5,12.5C 210.5,10.1667 210.5,7.83333 210.5,5.5 Z M 206.5,20.5 C 206.181,22.7505 206.681,24.7505 208,26.5C 208.167,25.5 208.333,24.5 208.5,23.5C 208.36,21.9704 207.693,20.9704 206.5,20.5 Z"/></g>
<g><path style="opacity:0.008" fill="#000080" d="M 155.5,5.5 C 156.573,6.25057 156.74,7.25057 156,8.5C 155.517,7.55198 155.351,6.55198 155.5,5.5 Z"/></g>
<g><path style="opacity:0.005" fill="#000080" d="M 206.5,4.5 C 207.598,5.60093 207.765,6.93426 207,8.5C 206.51,7.20677 206.343,5.87344 206.5,4.5 Z"/></g>
<g><path style="opacity:0.998" fill="#5f60f8" d="M 145.5,3.5 C 150.006,2.52722 152.172,4.19389 152,8.5C 145.645,12.2008 143.478,10.5342 145.5,3.5 Z"/></g>
<g><path style="opacity:0.012" fill="#000080" d="M 154.5,3.5 C 155.833,4.16667 155.833,4.16667 154.5,3.5 Z"/></g>
<g><path style="opacity:0.004" fill="#00017e" d="M 139.5,2.5 C 140.833,3.16667 140.833,3.16667 139.5,2.5 Z"/></g>
<g><path style="opacity:0.999" fill="#5f60f9" d="M 100.5,12.5 C 103.518,12.3354 106.518,12.502 109.5,13C 114.785,14.7367 116.451,18.2367 114.5,23.5C 110.356,24.0153 106.356,25.0153 102.5,26.5C 103.527,28.024 105.027,28.6906 107,28.5C 109.199,28.0393 111.366,27.8727 113.5,28C 114.747,29.4936 114.747,30.9936 113.5,32.5C 104.821,36.3343 98.6542,34.001 95,25.5C 94.1138,19.9465 95.9471,15.6131 100.5,12.5 Z"/></g>
<g><path style="opacity:0.999" fill="#6061fb" d="M 132.5,5.5 C 134.792,5.24358 136.959,5.57692 139,6.5C 139.667,14.8333 139.667,23.1667 139,31.5C 132.098,35.9894 125.764,35.3227 120,29.5C 115.948,17.7243 120.114,12.0576 132.5,12.5C 132.5,10.1667 132.5,7.83333 132.5,5.5 Z M 128.5,21.5 C 129.791,22.5417 129.791,23.7083 128.5,25C 129,25.5 129.5,26 130,26.5C 130.667,24.1667 130.667,21.8333 130,19.5C 129.283,20.0442 128.783,20.7109 128.5,21.5 Z"/></g>
<g><path style="opacity:0.999" fill="#6162fc" d="M 160.5,12.5 C 163.518,12.3354 166.518,12.502 169.5,13C 170.38,14.3561 170.714,15.8561 170.5,17.5C 168.409,17.3184 166.409,17.6518 164.5,18.5C 163.506,23.456 163.173,28.456 163.5,33.5C 161.208,33.7564 159.041,33.4231 157,32.5C 156.333,26.8333 156.333,21.1667 157,15.5C 158.145,14.3636 159.312,13.3636 160.5,12.5 Z"/></g>
<g><path style="opacity:1" fill="#6162fc" d="M 144.5,12.5 C 146.792,12.2436 148.959,12.5769 151,13.5C 151.5,20.1583 151.666,26.825 151.5,33.5C 149.208,33.7564 147.041,33.4231 145,32.5C 144.5,25.8417 144.334,19.175 144.5,12.5 Z"/></g>
<g><path style="opacity:0.999" fill="#5c5cf4" d="M 178.5,12.5 C 186.405,10.4517 191.738,13.1183 194.5,20.5C 194.471,22.0293 193.804,23.196 192.5,24C 188.68,24.2348 185.013,25.0682 181.5,26.5C 182.527,28.024 184.027,28.6906 186,28.5C 188.199,28.0393 190.366,27.8727 192.5,28C 193.86,29.9376 193.527,31.6043 191.5,33C 178.177,36.3447 172.343,31.1781 174,17.5C 175.707,15.9625 177.207,14.2959 178.5,12.5 Z"/></g>
<g><path style="opacity:1" fill="#090887" d="M 103.5,17.5 C 105.665,17.1159 107.332,17.7826 108.5,19.5C 106.235,20.6474 103.902,20.8141 101.5,20C 102.381,19.2917 103.047,18.4584 103.5,17.5 Z"/></g>
<g><path style="opacity:0.004" fill="#38136d" d="M 12.5,20.5 C 12.1667,20.5 11.8333,20.5 11.5,20.5C 11.8333,17.8333 12.1667,17.8333 12.5,20.5 Z"/></g>
<g><path style="opacity:0.906" fill="#100d8d" d="M 128.5,17.5 C 129.833,17.5 131.167,17.5 132.5,17.5C 132.5,21.1667 132.5,24.8333 132.5,28.5C 126.822,28.8428 124.656,26.1762 126,20.5C 127.045,19.6266 127.878,18.6266 128.5,17.5 Z M 128.5,21.5 C 129.791,22.5417 129.791,23.7083 128.5,25C 129,25.5 129.5,26 130,26.5C 130.667,24.1667 130.667,21.8333 130,19.5C 129.283,20.0442 128.783,20.7109 128.5,21.5 Z"/></g>
<g><path style="opacity:0.008" fill="#35116c" d="M 11.5,20.5 C 10.8333,21.1667 10.8333,21.1667 11.5,20.5 Z"/></g>
<g><path style="opacity:0.633" fill="#070685" d="M 206.5,17.5 C 207.833,17.5 209.167,17.5 210.5,17.5C 210.5,21.1667 210.5,24.8333 210.5,28.5C 204.844,28.1326 203.011,25.1326 205,19.5C 205.717,18.9558 206.217,18.2891 206.5,17.5 Z M 206.5,20.5 C 206.181,22.7505 206.681,24.7505 208,26.5C 208.167,25.5 208.333,24.5 208.5,23.5C 208.36,21.9704 207.693,20.9704 206.5,20.5 Z"/></g>
<g><path style="opacity:0.012" fill="#35126d" d="M 56.5,21.5 C 57.8333,22.1667 57.8333,22.1667 56.5,21.5 Z"/></g>
<g><path style="opacity:0.004" fill="#00007f" d="M 167.5,22.5 C 167.897,21.475 168.563,21.3083 169.5,22C 168.906,22.4643 168.239,22.631 167.5,22.5 Z"/></g>
<g><path style="opacity:0.012" fill="#34126c" d="M 57.5,23.5 C 58.8333,24.1667 58.8333,24.1667 57.5,23.5 Z"/></g>
<g><path style="opacity:0.005" fill="#00027e" d="M 69.5,8.5 C 70.6566,16.6563 70.8232,24.9896 70,33.5C 69.5003,25.1733 69.3336,16.84 69.5,8.5 Z"/></g>
<g><path style="opacity:0.835" fill="#3b1b71" d="M 47.5,9.5 C 49.248,10.7894 49.5814,12.2894 48.5,14C 51.3993,16.7291 54.066,19.5624 56.5,22.5C 56.595,24.7857 57.2616,26.7857 58.5,28.5C 58.7507,31.909 58.4173,35.2423 57.5,38.5C 59.0863,40.1727 59.7529,42.1727 59.5,44.5C 58.596,45.209 58.2627,46.209 58.5,47.5C 57.1667,48.8333 57.1667,50.1667 58.5,51.5C 58.5,52.8333 58.5,54.1667 58.5,55.5C 57.8333,55.5 57.5,55.8333 57.5,56.5C 56.8333,56.5 56.5,56.8333 56.5,57.5C 42.5,58.8333 28.5,58.8333 14.5,57.5C 12.9192,55.8583 12.2525,53.8583 12.5,51.5C 14.7813,50.3656 14.7813,49.0322 12.5,47.5C 12.6716,46.5084 12.3382,45.8417 11.5,45.5C 11.7373,44.209 11.404,43.209 10.5,42.5C 10.7678,40.901 10.4345,39.5676 9.5,38.5C 9.5,34.8333 9.5,31.1667 9.5,27.5C 10.7362,25.351 11.7362,23.0177 12.5,20.5C 21.2546,7.80498 32.9212,4.13831 47.5,9.5 Z"/></g>
<g><path style="opacity:0.996" fill="#402073" d="M 19.5,23.5 C 18.8485,24.0906 18.1818,24.7573 17.5,25.5C 17.1667,25.1667 16.8333,24.8333 16.5,24.5C 18.1397,21.5319 20.1397,18.8652 22.5,16.5C 24.0518,15.3782 25.7184,14.8782 27.5,15C 23.9517,17.047 21.285,19.8803 19.5,23.5 Z"/></g>
<g><path style="opacity:0.998" fill="#22cafa" d="M 45.5,17.5 C 45.8966,16.475 46.5632,16.3083 47.5,17C 54.7965,23.0128 56.7965,30.1795 53.5,38.5C 49.6048,36.7396 45.4381,35.4063 41,34.5C 38.7995,33.0375 38.1328,31.0375 39,28.5C 41.7433,25.3456 44.2433,22.0122 46.5,18.5C 46.3764,17.8933 46.0431,17.56 45.5,17.5 Z"/></g>
<g><path style="opacity:0.999" fill="#f7f6f9" d="M 55.5,44.5 C 44.8281,44.6665 34.1615,44.4998 23.5,44C 20.112,37.605 18.7787,30.7716 19.5,23.5C 21.285,19.8803 23.9517,17.047 27.5,15C 25.7184,14.8782 24.0518,15.3782 22.5,16.5C 21.8333,16.5 21.5,16.1667 21.5,15.5C 23.428,13.5259 25.7613,12.0259 28.5,11C 33.9212,10.1608 39.2545,10.4941 44.5,12C 45.4506,12.7175 45.6172,13.5509 45,14.5C 41.1179,18.7139 37.6179,23.2139 34.5,28C 27.4006,26.4353 23.9006,29.2686 24,36.5C 24.4652,37.9308 25.2986,39.0975 26.5,40C 31.7185,39.1941 37.0519,38.8608 42.5,39C 47.1667,40.3333 51.8333,41.6667 56.5,43C 55.944,43.3826 55.6107,43.8826 55.5,44.5 Z"/></g>
<g><path style="opacity:1" fill="#4d2e7b" d="M 29.5,12.5 C 31.924,12.1924 34.2573,12.5258 36.5,13.5C 35.3333,13.8333 34.1667,14.1667 33,14.5C 31.3189,14.3917 30.1522,13.7251 29.5,12.5 Z"/></g>
<g><path style="opacity:0.012" fill="#34116b" d="M 9.5,27.5 C 8.42654,26.7494 8.25988,25.7494 9,24.5C 9.48278,25.448 9.64945,26.448 9.5,27.5 Z"/></g>
<g><path style="opacity:0.998" fill="#d9c4ee" d="M 21.5,15.5 C 21.5,16.1667 21.8333,16.5 22.5,16.5C 20.1397,18.8652 18.1397,21.5319 16.5,24.5C 16.8333,24.8333 17.1667,25.1667 17.5,25.5C 18.1818,24.7573 18.8485,24.0906 19.5,23.5C 18.7787,30.7716 20.112,37.605 23.5,44C 34.1615,44.4998 44.8281,44.6665 55.5,44.5C 55.4606,45.5832 55.1272,46.5832 54.5,47.5C 41.8333,48.8333 29.1667,48.8333 16.5,47.5C 11.4592,38.5671 11.2925,29.5671 16,20.5C 17.7038,18.6266 19.5372,16.9599 21.5,15.5 Z"/></g>
<g><path style="opacity:0.009" fill="#00017e" d="M 169.5,24.5 C 170.598,25.6009 170.765,26.9343 170,28.5C 169.51,27.2068 169.343,25.8734 169.5,24.5 Z"/></g>
<g><path style="opacity:0.012" fill="#34116b" d="M 58.5,28.5 C 58.3505,27.448 58.5172,26.448 59,25.5C 59.7401,26.7494 59.5735,27.7494 58.5,28.5 Z"/></g>
<g><path style="opacity:0.008" fill="#00007f" d="M 90.5,27.5 C 90.5,27.1667 90.5,26.8333 90.5,26.5C 91.1667,26.5 91.8333,26.5 92.5,26.5C 92.5,27.5 92.5,28.5 92.5,29.5C 91.8333,28.8333 91.1667,28.1667 90.5,27.5 Z"/></g>
<g><path style="opacity:0.008" fill="#00007f" d="M 90.5,27.5 C 89.0813,28.4511 87.4147,28.7845 85.5,28.5C 85.6621,30.5273 85.4955,32.5273 85,34.5C 84.5034,32.1902 84.3367,29.8568 84.5,27.5C 86.5,27.5 88.5,27.5 90.5,27.5 Z"/></g>
<g><path style="opacity:0.008" fill="#33116a" d="M 7.5,28.5 C 8.63784,31.3035 8.80451,34.3035 8,37.5C 7.50204,34.5184 7.33537,31.5184 7.5,28.5 Z"/></g>
<g><path style="opacity:0.007" fill="#33106b" d="M 59.5,29.5 C 60.6291,31.6282 60.7958,33.9615 60,36.5C 59.5034,34.1902 59.3367,31.8568 59.5,29.5 Z"/></g>
<g><path style="opacity:0.012" fill="#00007f" d="M 92.5,29.5 C 92.8333,29.5 93.1667,29.5 93.5,29.5C 93.3147,30.1701 92.9813,30.1701 92.5,29.5 Z"/></g>
<g><path style="opacity:0.995" fill="#078ef5" d="M 45.5,17.5 C 46.0431,17.56 46.3764,17.8933 46.5,18.5C 44.2433,22.0122 41.7433,25.3456 39,28.5C 38.1328,31.0375 38.7995,33.0375 41,34.5C 45.4381,35.4063 49.6048,36.7396 53.5,38.5C 47.8049,37.7142 42.1382,36.7142 36.5,35.5C 36.6427,33.7376 36.3094,32.0709 35.5,30.5C 38.8574,26.148 42.1907,21.8147 45.5,17.5 Z"/></g>
<g><path style="opacity:0.004" fill="#000081" d="M 93.5,31.5 C 94.8333,32.1667 94.8333,32.1667 93.5,31.5 Z"/></g>
<g><path style="opacity:0.012" fill="#00007f" d="M 118.5,31.5 C 119.167,31.5 119.5,31.8333 119.5,32.5C 119.158,33.3382 118.492,33.6716 117.5,33.5C 117.328,32.5084 117.662,31.8417 118.5,31.5 Z"/></g>
<g><path style="opacity:0.008" fill="#00007f" d="M 220.5,31.5 C 221.833,32.1667 221.833,32.1667 220.5,31.5 Z"/></g>
<g><path style="opacity:0.008" fill="#01007f" d="M 219.5,32.5 C 219.833,32.5 220.167,32.5 220.5,32.5C 220.315,33.1701 219.981,33.1701 219.5,32.5 Z"/></g>
<g><path style="opacity:0.008" fill="#010182" d="M 194.5,33.5 C 195.833,34.1667 195.833,34.1667 194.5,33.5 Z"/></g>
<g><path style="opacity:0.008" fill="#01017f" d="M 218.5,33.5 C 218.833,33.5 219.167,33.5 219.5,33.5C 219.315,34.1701 218.981,34.1701 218.5,33.5 Z"/></g>
<g><path style="opacity:0.006" fill="#00007f" d="M 98.5,34.5 C 98.5,34.8333 98.5,35.1667 98.5,35.5C 95.8333,35.1667 95.8333,34.8333 98.5,34.5 Z"/></g>
<g><path style="opacity:0.008" fill="#000081" d="M 115.5,34.5 C 116.833,35.1667 116.833,35.1667 115.5,34.5 Z"/></g>
<g><path style="opacity:0.008" fill="#000080" d="M 139.5,34.5 C 140.833,35.1667 140.833,35.1667 139.5,34.5 Z"/></g>
<g><path style="opacity:0.008" fill="#010181" d="M 193.5,34.5 C 193.833,34.5 194.167,34.5 194.5,34.5C 194.315,35.1701 193.981,35.1701 193.5,34.5 Z"/></g>
<g><path style="opacity:0.004" fill="#00007f" d="M 200.5,34.5 C 200.5,34.8333 200.5,35.1667 200.5,35.5C 197.833,35.1667 197.833,34.8333 200.5,34.5 Z"/></g>
<g><path style="opacity:0.012" fill="#00007f" d="M 217.5,34.5 C 217.833,34.5 218.167,34.5 218.5,34.5C 218.315,35.1701 217.981,35.1701 217.5,34.5 Z"/></g>
<g><path style="opacity:1" fill="#dcb221" d="M 27.5,30.5 C 34.004,30.1377 35.6707,32.6377 32.5,38C 26.152,38.4575 24.4853,35.9575 27.5,30.5 Z"/></g>
<g><path style="opacity:1" fill="#4c1379" d="M 28.5,32.5 C 30.3464,32.2222 31.6798,32.8888 32.5,34.5C 31.6798,36.1112 30.3464,36.7778 28.5,36.5C 28.5,35.1667 28.5,33.8333 28.5,32.5 Z"/></g>
<g><path style="opacity:0.008" fill="#00007f" d="M 73.5,35.5 C 73.5,35.8333 73.5,36.1667 73.5,36.5C 72.8299,36.0187 72.8299,35.6853 73.5,35.5 Z"/></g>
<g><path style="opacity:0.012" fill="#000080" d="M 98.5,35.5 C 99.8333,36.1667 99.8333,36.1667 98.5,35.5 Z"/></g>
<g><path style="opacity:0.004" fill="#00007f" d="M 113.5,36.5 C 113.5,36.1667 113.5,35.8333 113.5,35.5C 114.167,35.5 114.833,35.5 115.5,35.5C 115.158,36.3382 114.492,36.6716 113.5,36.5 Z"/></g>
<g><path style="opacity:0.012" fill="#00007f" d="M 137.5,35.5 C 138.833,36.1667 138.833,36.1667 137.5,35.5 Z"/></g>
<g><path style="opacity:0.008" fill="#00007f" d="M 144.5,35.5 C 144.5,35.8333 144.5,36.1667 144.5,36.5C 143.83,36.0187 143.83,35.6853 144.5,35.5 Z"/></g>
<g><path style="opacity:0.006" fill="#00007e" d="M 178.5,35.5 C 178.5,35.8333 178.5,36.1667 178.5,36.5C 175.833,36.1667 175.833,35.8333 178.5,35.5 Z"/></g>
<g><path style="opacity:0.008" fill="#000080" d="M 192.5,35.5 C 192.833,35.5 193.167,35.5 193.5,35.5C 193.315,36.1701 192.981,36.1701 192.5,35.5 Z"/></g>
<g><path style="opacity:0.012" fill="#000080" d="M 200.5,35.5 C 201.833,36.1667 201.833,36.1667 200.5,35.5 Z"/></g>
<g><path style="opacity:0.008" fill="#000080" d="M 215.5,36.5 C 215.5,36.1667 215.5,35.8333 215.5,35.5C 216.167,35.5 216.833,35.5 217.5,35.5C 217.158,36.3382 216.492,36.6716 215.5,36.5 Z"/></g>
<g><path style="opacity:0.007" fill="#00007f" d="M 73.5,36.5 C 74.552,36.3505 75.552,36.5172 76.5,37C 75.2506,37.7401 74.2506,37.5735 73.5,36.5 Z"/></g>
<g><path style="opacity:0.01" fill="#00017f" d="M 78.5,37.5 C 79.6009,36.4017 80.9343,36.235 82.5,37C 81.2068,37.49 79.8734,37.6567 78.5,37.5 Z"/></g>
<g><path style="opacity:0.01" fill="#00007f" d="M 102.5,36.5 C 102.103,37.525 101.437,37.6917 100.5,37C 101.094,36.5357 101.761,36.369 102.5,36.5 Z"/></g>
<g><path style="opacity:0.008" fill="#00007e" d="M 111.5,36.5 C 112.167,36.5 112.833,36.5 113.5,36.5C 112.833,37.8333 112.167,37.8333 111.5,36.5 Z"/></g>
<g><path style="opacity:0.008" fill="#00017f" d="M 126.5,36.5 C 125.749,37.5735 124.749,37.7401 123.5,37C 124.448,36.5172 125.448,36.3505 126.5,36.5 Z"/></g>
<g><path style="opacity:0.01" fill="#00007f" d="M 134.5,37.5 C 134.897,36.475 135.563,36.3083 136.5,37C 135.906,37.4643 135.239,37.631 134.5,37.5 Z"/></g>
<g><path style="opacity:0.008" fill="#00007f" d="M 144.5,36.5 C 145.239,36.369 145.906,36.5357 146.5,37C 145.563,37.6917 144.897,37.525 144.5,36.5 Z"/></g>
<g><path style="opacity:0.01" fill="#00007f" d="M 150.5,36.5 C 151.552,36.3505 152.552,36.5172 153.5,37C 152.251,37.7401 151.251,37.5735 150.5,36.5 Z"/></g>
<g><path style="opacity:0.008" fill="#00007f" d="M 158.5,36.5 C 158.103,37.525 157.437,37.6917 156.5,37C 157.094,36.5357 157.761,36.369 158.5,36.5 Z"/></g>
<g><path style="opacity:0.008" fill="#00007f" d="M 162.5,36.5 C 163.552,36.3505 164.552,36.5172 165.5,37C 164.251,37.7401 163.251,37.5735 162.5,36.5 Z"/></g>
<g><path style="opacity:0.008" fill="#00007f" d="M 178.5,36.5 C 179.239,36.369 179.906,36.5357 180.5,37C 179.563,37.6917 178.897,37.525 178.5,36.5 Z"/></g>
<g><path style="opacity:0.007" fill="#00007f" d="M 189.5,36.5 C 190.5,36.5 191.5,36.5 192.5,36.5C 191.5,37.8333 190.5,37.8333 189.5,36.5 Z"/></g>
<g><path style="opacity:0.012" fill="#00007f" d="M 204.5,36.5 C 204.103,37.525 203.437,37.6917 202.5,37C 203.094,36.5357 203.761,36.369 204.5,36.5 Z"/></g>
<g><path style="opacity:0.009" fill="#00007e" d="M 212.5,36.5 C 213.5,36.5 214.5,36.5 215.5,36.5C 214.5,37.8333 213.5,37.8333 212.5,36.5 Z"/></g>
<g><path style="opacity:0.007" fill="#00007f" d="M 103.5,38.5 C 105.628,37.3709 107.961,37.2042 110.5,38C 108.19,38.4966 105.857,38.6633 103.5,38.5 Z"/></g>
<g><path style="opacity:0.006" fill="#000080" d="M 127.5,38.5 C 128.946,37.3871 130.613,37.2204 132.5,38C 130.866,38.4935 129.199,38.6602 127.5,38.5 Z"/></g>
<g><path style="opacity:0.007" fill="#00007f" d="M 181.5,38.5 C 183.628,37.3709 185.961,37.2042 188.5,38C 186.19,38.4966 183.857,38.6633 181.5,38.5 Z"/></g>
<g><path style="opacity:0.005" fill="#00007f" d="M 205.5,38.5 C 207.288,37.3775 209.288,37.2109 211.5,38C 209.527,38.4955 207.527,38.6621 205.5,38.5 Z"/></g>
<g><path style="opacity:0.012" fill="#34116b" d="M 9.5,38.5 C 9.5,39.8333 9.5,41.1667 9.5,42.5C 8.16667,41.1667 8.16667,39.8333 9.5,38.5 Z"/></g>
<g><path style="opacity:0.01" fill="#35126c" d="M 60.5,44.5 C 60.3433,43.1266 60.51,41.7932 61,40.5C 61.765,42.0657 61.5983,43.3991 60.5,44.5 Z"/></g>
<g><path style="opacity:0.012" fill="#35136d" d="M 9.5,42.5 C 9.83333,42.5 10.1667,42.5 10.5,42.5C 10.1667,45.1667 9.83333,45.1667 9.5,42.5 Z"/></g>
<g><path style="opacity:0.008" fill="#35136c" d="M 59.5,44.5 C 59.8333,44.5 60.1667,44.5 60.5,44.5C 60.7373,45.791 60.404,46.791 59.5,47.5C 59.5,46.5 59.5,45.5 59.5,44.5 Z"/></g>
<g><path style="opacity:0.008" fill="#35116c" d="M 11.5,45.5 C 11.5,46.1667 11.5,46.8333 11.5,47.5C 10.1667,46.8333 10.1667,46.1667 11.5,45.5 Z"/></g>
<g><path style="opacity:0.004" fill="#34126a" d="M 11.5,47.5 C 11.8333,47.5 12.1667,47.5 12.5,47.5C 12.1667,50.1667 11.8333,50.1667 11.5,47.5 Z"/></g>
<g><path style="opacity:0.004" fill="#33116a" d="M 58.5,47.5 C 58.8333,47.5 59.1667,47.5 59.5,47.5C 59.1667,50.1667 58.8333,50.1667 58.5,47.5 Z"/></g>
<g><path style="opacity:0.008" fill="#381470" d="M 12.5,51.5 C 11.8333,50.1667 11.8333,50.1667 12.5,51.5 Z"/></g>
<g><path style="opacity:0.008" fill="#36126f" d="M 59.5,51.5 C 58.8333,50.1667 58.8333,50.1667 59.5,51.5 Z"/></g>
<g><path style="opacity:0.005" fill="#34106b" d="M 11.5,51.5 C 11.6495,52.552 11.4828,53.552 11,54.5C 10.2599,53.2506 10.4265,52.2506 11.5,51.5 Z"/></g>
<g><path style="opacity:0.999" fill="#1589e5" d="M 25.5,51.5 C 25.5,52.5 25.5,53.5 25.5,54.5C 35.1667,54.5 44.8333,54.5 54.5,54.5C 42.0067,55.66 29.3401,55.8267 16.5,55C 15.1667,54 15.1667,53 16.5,52C 19.4816,51.502 22.4816,51.3354 25.5,51.5 Z"/></g>
<g><path style="opacity:0.007" fill="#34116b" d="M 59.5,51.5 C 60.5735,52.2506 60.7401,53.2506 60,54.5C 59.5172,53.552 59.3505,52.552 59.5,51.5 Z"/></g>
<g><path style="opacity:0.999" fill="#23d2fc" d="M 25.5,51.5 C 35.1724,51.3335 44.8391,51.5002 54.5,52C 55.7736,52.9772 55.7736,53.8106 54.5,54.5C 44.8333,54.5 35.1667,54.5 25.5,54.5C 25.5,53.5 25.5,52.5 25.5,51.5 Z"/></g>
<g><path style="opacity:0.008" fill="#35126c" d="M 58.5,55.5 C 59.8333,56.1667 59.8333,56.1667 58.5,55.5 Z"/></g>
<g><path style="opacity:0.004" fill="#34116d" d="M 57.5,56.5 C 57.8333,56.5 58.1667,56.5 58.5,56.5C 58.3147,57.1701 57.9813,57.1701 57.5,56.5 Z"/></g>
<g><path style="opacity:0.008" fill="#34136d" d="M 14.5,57.5 C 14.5,57.8333 14.5,58.1667 14.5,58.5C 13.8299,58.0187 13.8299,57.6853 14.5,57.5 Z"/></g>
<g><path style="opacity:0.004" fill="#36106f" d="M 56.5,57.5 C 56.8333,57.5 57.1667,57.5 57.5,57.5C 57.3147,58.1701 56.9813,58.1701 56.5,57.5 Z"/></g>
<g><path style="opacity:0.008" fill="#34116c" d="M 14.5,58.5 C 15.8333,59.1667 15.8333,59.1667 14.5,58.5 Z"/></g>
<g><path style="opacity:0.008" fill="#36116d" d="M 56.5,58.5 C 55.8333,59.1667 55.8333,59.1667 56.5,58.5 Z"/></g>
<g><path style="opacity:0.004" fill="#33116b" d="M 16.5,60.5 C 28.9933,59.34 41.6599,59.1733 54.5,60C 41.8377,60.4999 29.1711,60.6666 16.5,60.5 Z" fill="currentColor"/><defs>
<linearGradient id="paint0_linear_89_11" x1="30.5" y1="0.0130005" x2="30.5" y2="65.013" gradientUnits="userSpaceOnUse">
<stop stop-color="#6364FF"/>
<stop offset="1" stop-color="#563ACC"/>
</linearGradient>
</defs></symbol><use xlink:href="#logo-symbol-wordmark"/>
</svg>
