<svg xmlns="http://www.w3.org/2000/svg" xmlns:xlink="http://www.w3.org/1999/xlink" width="79" zoomAndPan="magnify" viewBox="0 0 59.25 59.25" height="79" preserveAspectRatio="xMidYMid meet" version="1.0"><path fill="#000000" d="M 27.414062 7.308594 C 16.09375 8.710938 7.671875 18.152344 7.671875 29.417969 C 7.671875 33.9375 8.765625 38.550781 10.808594 42.539062 L 11.71875 44.328125 L 11.355469 44.726562 C 10.609375 45.546875 10.371094 46.3125 10.445312 47.570312 C 10.515625 48.917969 10.882812 49.613281 11.992188 50.46875 L 12.648438 50.960938 L 46.96875 50.960938 L 47.625 50.523438 C 49.503906 49.230469 49.902344 46.585938 48.480469 44.945312 L 47.933594 44.328125 L 48.464844 43.269531 C 49.285156 41.648438 50.503906 38.183594 50.503906 37.492188 C 50.503906 36.707031 49.792969 35.816406 49.027344 35.652344 C 48.535156 35.542969 48.480469 35.46875 48.589844 35.050781 C 49.921875 29.835938 49.484375 25.296875 47.226562 20.707031 C 45.875 17.953125 43.324219 14.980469 41.027344 13.488281 C 40.589844 13.195312 40.589844 13.179688 40.898438 12.8125 C 41.375 12.285156 41.484375 11.300781 41.136719 10.625 C 40.808594 10.007812 39.625 9.3125 37.457031 8.492188 C 34.792969 7.492188 30.257812 6.960938 27.414062 7.308594 Z M 34.847656 9.914062 C 35.816406 10.171875 37.183594 10.644531 37.894531 10.992188 L 39.207031 11.59375 L 33.71875 18.738281 L 28.214844 25.882812 L 27.46875 25.480469 C 26.867188 25.171875 26.410156 25.078125 25.171875 25.078125 C 23.75 25.078125 23.53125 25.132812 22.472656 25.699219 C 20.503906 26.773438 19.449219 28.523438 19.464844 30.75 C 19.484375 32.371094 19.957031 33.519531 21.105469 34.683594 C 22.292969 35.886719 23.457031 36.378906 25.171875 36.363281 C 26.867188 36.363281 28.214844 35.777344 29.328125 34.574219 L 30.074219 33.753906 L 39.207031 35.707031 L 48.335938 37.65625 L 48.226562 38.113281 C 47.988281 39.042969 46.640625 42.285156 46.257812 42.886719 L 45.839844 43.488281 L 30.074219 43.542969 C 11.738281 43.597656 13.871094 43.871094 12.523438 41.171875 C 11.609375 39.316406 10.972656 37.417969 10.390625 34.921875 C 9.914062 32.789062 9.714844 28.289062 10.042969 26.300781 C 10.863281 21.144531 13.6875 16.511719 17.933594 13.304688 C 20.378906 11.464844 23.894531 9.96875 26.847656 9.515625 C 28.851562 9.203125 32.863281 9.40625 34.847656 9.914062 Z M 40.460938 15.765625 C 42.921875 17.660156 45.09375 20.597656 46.132812 23.476562 C 47.40625 26.992188 47.570312 31.074219 46.570312 34.15625 C 46.242188 35.160156 45.839844 35.214844 45.914062 34.265625 L 45.949219 33.628906 L 40.535156 32.460938 C 37.546875 31.824219 34.59375 31.183594 33.972656 31.058594 L 32.863281 30.804688 L 32.734375 29.855469 C 32.660156 29.328125 32.441406 28.507812 32.261719 28.015625 L 31.933594 27.121094 L 35.941406 21.835938 L 39.933594 16.53125 L 39.476562 16.058594 C 39.1875 15.746094 39.058594 15.457031 39.132812 15.273438 C 39.1875 15.089844 39.277344 14.964844 39.332031 14.964844 C 39.367188 14.964844 39.878906 15.328125 40.460938 15.765625 Z M 26.773438 27.523438 C 29.179688 28.742188 29.363281 32.132812 27.121094 33.683594 C 26.5 34.121094 26.210938 34.191406 25.152344 34.191406 C 24.078125 34.191406 23.820312 34.121094 23.148438 33.644531 C 20.269531 31.605469 21.597656 27.210938 25.132812 27.175781 C 25.734375 27.175781 26.355469 27.304688 26.773438 27.523438 Z M 46.679688 46.132812 C 47.425781 46.878906 47.371094 48.097656 46.570312 48.628906 C 46.132812 48.917969 45.128906 48.9375 33.574219 48.882812 C 26.703125 48.863281 21.050781 48.808594 21.035156 48.792969 C 21.015625 48.773438 20.90625 48.390625 20.777344 47.953125 C 20.597656 47.261719 20.613281 47.023438 20.851562 46.441406 L 21.144531 45.765625 L 33.71875 45.765625 C 46.023438 45.765625 46.3125 45.765625 46.679688 46.132812 Z M 46.679688 46.132812 " fill-opacity="1" fill-rule="nonzero"/><path fill="#000000" d="M 29.089844 11.265625 C 27.265625 11.375 25.316406 11.738281 24.953125 12.046875 C 24.585938 12.339844 24.570312 12.429688 24.769531 12.867188 C 24.988281 13.34375 25.042969 13.359375 25.863281 13.234375 C 26.335938 13.160156 27.523438 13.015625 28.488281 12.886719 C 30.382812 12.667969 30.710938 12.503906 30.601562 11.867188 C 30.53125 11.375 30.09375 11.210938 29.089844 11.265625 Z M 29.089844 11.265625 " fill-opacity="1" fill-rule="nonzero"/><path fill="#000000" d="M 20.523438 13.851562 C 17.460938 15.746094 14.855469 18.574219 13.617188 21.324219 C 13.195312 22.21875 13.34375 22.675781 14.089844 22.765625 C 14.472656 22.820312 14.652344 22.601562 15.511719 21.160156 C 17.113281 18.445312 19.136719 16.457031 21.945312 14.855469 C 23.183594 14.144531 23.457031 13.6875 22.945312 13.179688 C 22.566406 12.796875 22 12.941406 20.523438 13.851562 Z M 20.523438 13.851562 " fill-opacity="1" fill-rule="nonzero"/><path fill="#000000" d="M 24.332031 28.890625 C 23.585938 29.21875 23.164062 29.835938 23.164062 30.601562 C 23.164062 32.535156 25.1875 33.390625 26.554688 32.023438 C 26.992188 31.585938 27.175781 31.238281 27.175781 30.839844 C 27.175781 29.984375 26.683594 29.179688 25.992188 28.890625 C 25.226562 28.578125 25.0625 28.578125 24.332031 28.890625 Z M 24.332031 28.890625 " fill-opacity="1" fill-rule="nonzero"/></svg>